<?xml version="1.0" encoding="UTF-8" standalone="no"?>
<!DOCTYPE svg PUBLIC "-//W3C//DTD SVG 1.1//EN" "http://www.w3.org/Graphics/SVG/1.1/DTD/svg11.dtd">
<svg width="100%" height="100%" viewBox="0 0 512 512" version="1.1" xmlns="http://www.w3.org/2000/svg" xmlns:xlink="http://www.w3.org/1999/xlink" xml:space="preserve" xmlns:serif="http://www.serif.com/" style="fill-rule:evenodd;clip-rule:evenodd;stroke-linejoin:round;stroke-miterlimit:2;">
    <g transform="matrix(1.2041,-0.925492,0.635863,0.90742,-184.125,144.837)">
        <path d="M166.537,191.975L166.537,277.442C166.537,280.966 164.452,283.827 161.883,283.827C159.314,283.827 157.229,280.966 157.229,277.442L157.229,191.975C157.229,188.451 159.314,185.59 161.883,185.59C164.452,185.59 166.537,188.451 166.537,191.975Z" style="fill:rgb(140,188,59);"/>
    </g>
    <g transform="matrix(1.18179,0.892092,-0.649585,0.943893,312.458,-156.783)">
        <path d="M166.537,191.61L166.537,277.807C166.537,281.13 164.452,283.827 161.883,283.827C159.314,283.827 157.229,281.13 157.229,277.807L157.229,191.61C157.229,188.288 159.314,185.59 161.883,185.59C164.452,185.59 166.537,188.288 166.537,191.61Z" style="fill:rgb(140,188,59);"/>
    </g>
    <g transform="matrix(1.91733,0,0,2.00805,-230.797,-251.084)">
        <path d="M191.252,291.846C191.252,257.273 219.32,229.205 253.893,229.205C288.465,229.205 316.534,257.273 316.534,291.846L191.252,291.846ZM313.595,310.846C305.542,336.142 281.843,354.487 253.893,354.487C225.943,354.487 202.244,336.142 194.19,310.846L313.595,310.846ZM230.812,263.594C230.812,261.243 228.9,259.334 226.546,259.334C224.191,259.334 222.28,261.243 222.28,263.594L222.28,273.646C222.28,275.997 224.191,277.906 226.546,277.906C228.9,277.906 230.812,275.997 230.812,273.646L230.812,263.594ZM281.184,263.594C281.184,261.243 279.272,259.334 276.918,259.334C274.563,259.334 272.652,261.243 272.652,263.594L272.652,273.646C272.652,275.997 274.563,277.906 276.918,277.906C279.272,277.906 281.184,275.997 281.184,273.646L281.184,263.594Z" style="fill:rgb(137,186,54);"/>
    </g>
    <g transform="matrix(1.48326,0,0,2.02989,-102.602,-303.57)">
        <path d="M320.201,327.552L320.201,372.074C320.201,374.533 317.853,376.529 314.961,376.529L166.034,376.529C163.142,376.529 160.794,374.533 160.794,372.074L160.794,327.552L320.201,327.552Z" style="fill:rgb(137,186,54);"/>
    </g>
    <g transform="matrix(1.44946,0,0,1.44946,-117.581,24.5506)">
        <g transform="matrix(0.998494,0,0,1,0.253008,0)">
            <g transform="matrix(85.1994,0,0,85.1994,347.899,74.1349)">
            </g>
            <text x="168.015px" y="74.135px" style="font-family:'Arial-BoldMT', 'Arial', sans-serif;font-weight:700;font-size:85.199px;fill:rgb(137,186,54);stroke:rgb(137,186,54);stroke-width:0.69px;">APK</text>
        </g>
    </g>
</svg>
